<svg height="64.391" viewBox="0 0 640 64.391" width="640" xmlns="http://www.w3.org/2000/svg">
	<g fill="#231F20">
		<path d="M79.24 12.46h5.7v9.005l-5.7-4.334v-4.671zm12.368 16.415s-25.062-19.419-25.285-19.594l-1.164-.905-26.453 20.499 2.324 2.999 24.14-18.707c.686.553 1.591 1.255 2.776 2.173l21.337 16.534 2.325-2.999zm-45.451 2.109v21.375h13.775v-12.506h10.45v12.507h13.775v-21.376l-19-14.725-19 14.725zM170.122 7.45l20.417 23.417v23.646l7.616-4v-19.645l20.418-23.418zM330.73 33.386c.671.824 1.007 1.913 1.007 3.269 0 1.592-.476 2.925-1.423 4.004-.946 1.079-2.146 1.709-3.6 1.888v-11.37c2.007.65 3.345 1.385 4.016 2.209zm17.741-2.748c0 12.68-10.277 22.959-22.96 22.959-12.68 0-22.96-10.279-22.96-22.959 0-12.683 10.28-22.962 22.96-22.962 12.682 0 22.96 10.279 22.96 22.962zm-12.896 5.767c0-1.176-.197-2.269-.592-3.278s-.958-1.882-1.69-2.614c-.733-.733-1.681-1.356-2.842-1.868-.61-.262-1.854-.629-3.736-1.101v-10.769c1.217.251 2.176.766 2.874 1.547s1.158 1.905 1.381 3.371l3.858-.58c-.331-2.365-1.313-4.228-2.947-5.582-1.272-1.065-2.994-1.701-5.166-1.91v-1.783h-2.2v1.783c-2.477.251-4.344.928-5.602 2.034-1.882 1.646-2.822 3.797-2.822 6.454 0 1.493.321 2.829.965 4.005s1.56 2.095 2.75 2.76c1.604.899 3.174 1.493 4.709 1.783v11.889c-1.467-.151-2.725-.892-3.776-2.219-.732-.941-1.245-2.415-1.536-4.419l-3.755.704c.139 1.938.633 3.577 1.483 4.918.852 1.342 1.86 2.314 3.029 2.916s2.688 1.02 4.555 1.254v3.736h2.2v-3.777c2.615-.124 4.744-1.052 6.391-2.779 1.645-1.731 2.469-3.889 2.469-6.475zm-15.749-14.588c0 1.274.355 2.338 1.068 3.196.712.857 1.919 1.542 3.62 2.055v-10.334c-1.452.223-2.597.803-3.434 1.743-.836.942-1.254 2.054-1.254 3.34zM479.166 14.237h-25.74v-7h25.74v7zm0 0h-25.74v-7h25.74v7zm-8.489 6.488h-17.251v7h17.251v-7zm-7.991 13.487h-9.26v7h9.26v-7zm-18.5 11.764v-38.739000000000004h-7v38.739000000000004h-5.498l8.998 8.999 9-8.999h-5.5zM585.863 11.664v-5.698l-8.547 8.549 8.547 8.549v-5.697c8.74 0 15.85 7.111 15.85 15.852s-7.109 15.849-15.85 15.849c-8.739 0-15.85-7.11-15.85-15.849h-5.701c0 11.883 9.667 21.551 21.551 21.551 11.885 0 21.552-9.668 21.552-21.551 0-11.886-9.667-21.555-21.552-21.555z"/>
	</g>
</svg>